{"title":"EVEREST.(2015).BD9.1080p[)(]Dts-5.1-(US)","uid":13316775,"size":8533577424,"categoryP":"video","categoryS":"movies","magnet":"?xt=urn:btih:7d931d686a5f8ef46fef57987b734b668e0e9a55&amp;dn=EVEREST.%282015%29.BD9.1080p%5B%29%28%5DDts-5.1-%28US%29&amp;tr=udp%3A%2F%2Ftracker.leechers-paradise.org%3A6969&amp;tr=udp%3A%2F%2Fzer0day.ch%3A1337&amp;tr=udp%3A%2F%2Fopen.demonii.com%3A1337&amp;tr=udp%3A%2F%2Ftracker.coppersurfer.tk%3A6969&amp;tr=udp%3A%2F%2Fexodus.desync.com%3A6969","seeders":0,"leechers":1,"uploader":"Tyr3ll","files":9,"time":1453833525,"description":"EVEREST.(2015).BD9.1080p[)(]Dts-5.1-(US)\r\n\r\nSee imdb right here : \nhttp://www.imdb.com/title/tt2719848/\r\n\r\n\r\nSource : BD50 import\r\n\r\nVideo codec : x264/2-pass/ HQ / AVCHD\r\n\r\nAudio : Downmixed Dolby Atmos True HD 7.1 to Dts-5.1/48 Khz/1509 Kbps\r\n\r\nFormat/Output : m2ts/BD9 custom through BD Folder\r\n\r\nLanguage : US English only\r\n\r\nSub : none\r\n\r\nQuality : Good\r\n\r\nFinal size : 7,94 GB\r\n\r\n\r\nSee below for complete details :\r\n\r\n\r\nGeneral\r\nID                             : 1 (0x1)\r\nComplete name                  : EVEREST.(2015).BD9.1080p[)(]Dts-5.1-(US)BDMVSTREAM0000.m2ts\r\n\r\nFormat                         : BDAV\r\nFormat/Info                    : Blu-ray Video\r\nFile size                      : 7.95 GiB\r\nDuration                       : 2h 1mn\r\nOverall bit rate mode          : Variable\r\nOverall bit rate               : 9 390 Kbps\r\nMaximum Overall bit rate       : 35.5 Mbps\r\n\r\nVideo\r\nID                             : 4113 (0x1011)\r\nMenu ID                        : 1 (0x1)\r\nFormat                         : AVC\r\nFormat/Info                    : Advanced Video Codec\r\nFormat profile                 :   \r\nFormat settings, CABAC         : Yes\r\nFormat settings, ReFrames      : 3 frames\r\nCodec ID                       : 27\r\nDuration                       : 2h 1mn\r\nBit rate mode                  : Variable\r\nBit rate                       : 7 288 Kbps\r\nMaximum bit rate               : 24.0 Mbps\r\nWidth                          : 1 920 pixels\r\nHeight                         : 1 080 pixels\r\nDisplay aspect ratio           : 16:9\r\nFrame rate                     : 23.976 (24000/1001) fps\r\nColor space                    : YUV\r\nChroma subsampling             : 4:2:0\r\nBit depth                      : 8 bits\r\nScan type                      : Progressive\r\nBits/(Pixel*Frame)             : 0.147\r\nStream size                    : 6.35 GiB (80%)\r\nWriting library                : x264 core 148 r2638+1 dc9664e\r\n\r\nEncoding settings              : cabac=1 / ref=3 / deblock=1:-1:-1 / analyse=0x3:0x113 / me=hex / subme=7 / psy=1 / psy_rd=1.00:0.15 / mixed_ref=1 / me_range=16 / chroma_me=1 / trellis=1 / 8x8dct=1 / cqm=0 / deadzone=21,11 / fast_pskip=1 / chroma_qp_offset=-3 / threads=6 / lookahead_threads=1 / sliced_threads=0 / slices=4 / nr=0 / decimate=1 / interlaced=0 / bluray_compat=1 / constrained_intra=0 / bframes=3 / b_pyramid=1 / b_adapt=1 / b_bias=0 / direct=1 / weightb=1 / open_gop=1 / weightp=1 / keyint=24 / keyint_min=1 / scenecut=40 / intra_refresh=0 / rc_lookahead=24 / rc=2pass / mbtree=1 / bitrate=7288 / ratetol=1.0 / qcomp=0.60 / qpmin=0 / qpmax=69 / qpstep=4 / cplxblur=20.0 / qblur=0.5 / vbv_maxrate=24000 / vbv_bufsize=24000 / nal_hrd=vbr / filler=0 / ip_ratio=1.40 / aq=1:1.00\r\n\r\nColor range                    : Limited\r\nColor primaries                : BT.709\r\nTransfer characteristics       : BT.709\r\nMatrix coefficients            : BT.709\r\n\r\nAudio\r\nID                             : 4352 (0x1100)\r\nMenu ID                        : 1 (0x1)\r\nFormat                         : DTS\r\nFormat/Info                    : Digital Theater Systems\r\nMode                           : 16\r\nFormat settings, Endianness    : Big\r\nCodec ID                       : 130\r\nDuration                       : 2h 1mn\r\nBit rate mode                  : Constant\r\nBit rate                       : 1 509 Kbps\r\nChannel(s)                     : 6 channels\r\nChannel positions              : Front: L C R, Side: L R, LFE\r\nSampling rate                  : 48.0 KHz\r\nFrame rate                     : 93.750 fps (512 spf)\r\nBit depth                      : 24 bits\r\nCompression mode               : Lossy\r\nStream size                    : 1.28 GiB (16%)\r\n\r\n\r\n\r\nEnjoy and seed, please.\r\n\r\nTy and regards","torrent":{"xt":"urn:btih:7d931d686a5f8ef46fef57987b734b668e0e9a55","amp;dn":"EVEREST.%282015%29.BD9.1080p%5B%29%28%5DDts-5.1-%28US%29","amp;tr":["udp%3A%2F%2Ftracker.leechers-paradise.org%3A6969","udp%3A%2F%2Fzer0day.ch%3A1337","udp%3A%2F%2Fopen.demonii.com%3A1337","udp%3A%2F%2Ftracker.coppersurfer.tk%3A6969","udp%3A%2F%2Fexodus.desync.com%3A6969"],"infoHash":"7d931d686a5f8ef46fef57987b734b668e0e9a55","infoHashBuffer":{"type":"Buffer","data":[125,147,29,104,106,95,142,244,111,239,87,152,123,115,75,102,142,14,154,85]},"announce":[],"urlList":[]}}